<?xml version="1.0" encoding="iso-8859-1"?>
<!-- Generator: Adobe Illustrator 19.0.0, SVG Export Plug-In . SVG Version: 6.00 Build 0)  -->
<svg version="1.1" id="Layer_1" xmlns="http://www.w3.org/2000/svg" xmlns:xlink="http://www.w3.org/1999/xlink" x="0px" y="0px"
	 viewBox="0 0 512 512" style="enable-background:new 0 0 512 512;" xml:space="preserve">
<g>
	<g>
		<path d="M75.188,334.932l-2.939,21.547L7.416,413.513c-9.057,7.968-9.941,21.771-1.973,30.828
			c7.969,9.058,21.772,9.94,30.828,1.973l67.808-59.651v-44.487C100.007,341.154,97.132,340.433,75.188,334.932z"/>
	</g>
</g>
<g>
	<g>
		<path d="M119.729,346.1v119.359c0,12.064,9.779,21.844,21.843,21.844s21.844-9.779,21.844-21.844V357.052L119.729,346.1z"/>
	</g>
</g>
<g>
	<g>
		<circle cx="196.119" cy="72.21" r="37.726"/>
	</g>
</g>
<g>
	<g>
		<path d="M506.791,261.245l-54.444-55.633l-10.411-20.82l5.859-30.578c2.835-14.793-6.858-29.083-21.651-31.918l-47.766-9.154
			c-12.196-2.338-24.043,3.845-29.418,14.376l24.776-0.925l-74.078,20.335c-5.907,1.622-10.609,6.092-12.529,11.909l-12.188,36.953
			l17.34,8.565c6.061,2.994,10.833,7.548,14.09,12.933l12.427-37.678l67.084-18.416l-50.008,28.838l-15.158,78.576
			c-1.218,6.313-1.328,12.791-0.327,19.142l12.034,76.308L297.444,456.8c-4.277,11.343,1.449,24.005,12.791,28.283
			c11.348,4.278,24.007-1.453,28.283-12.791l37.025-98.166c1.341-3.554,1.736-7.397,1.146-11.15l-12.936-82.396l11.205,2.147
			l35.87,79.373l24.398,107.314c2.687,11.819,14.447,19.225,26.269,16.536c11.821-2.688,19.224-14.448,16.538-26.269L453.143,350.21
			c-0.326-1.434-0.796-2.832-1.402-4.172l-28.584-63.253l8.78-45.817l48.754,49.819c7.053,7.207,18.61,7.335,25.822,0.28
			C513.719,280.013,513.844,268.452,506.791,261.245z"/>
	</g>
</g>
<g>
	<g>
		<circle cx="419.476" cy="65.065" r="40.368"/>
	</g>
</g>
<g>
	<g>
		<path d="M284.708,219.685l-71.473-35.306l-35.483-42.983l23.991,16.43l0.585-9.029c0.732-11.3-6.071-21.308-16.254-23.86
			c-6.731-1.688-20.424-5.13-34.128-8.576c-5.954-1.497-12.193-0.977-17.822,1.472c-15.009,6.529-37.224,16.4-73.853,33.303
			c-2.853,1.314-5.287,3.389-7.038,5.997l-33.283,49.572c-5.263,7.839-3.174,18.459,4.664,23.723
			c7.845,5.267,18.465,3.168,23.723-4.664l30.606-45.585c5.831-2.688-1.356,0.625,27.091-12.485L46.309,299.096
			c-2.631,5.789,0.264,12.526,5.956,13.954c27.559,6.91,98.619,24.725,126.159,31.63c5.694,1.428,11.422-3.122,11.834-9.494
			l6.587-101.701l-9.605-4.744c-5.112-2.526-8.998-3.776-11.225-8.888l-24.629-56.688l37.812,45.805
			c1.535,1.86,3.448,3.375,5.612,4.444l74.755,36.928c8.463,4.18,18.717,0.708,22.899-7.758
			C296.646,234.118,293.173,223.866,284.708,219.685z"/>
	</g>
</g>
<g>
</g>
<g>
</g>
<g>
</g>
<g>
</g>
<g>
</g>
<g>
</g>
<g>
</g>
<g>
</g>
<g>
</g>
<g>
</g>
<g>
</g>
<g>
</g>
<g>
</g>
<g>
</g>
<g>
</g>
</svg>
